<?xml version="1.0" standalone="no"?>
<!DOCTYPE svg PUBLIC "-//W3C//DTD SVG 20010904//EN"
 "http://www.w3.org/TR/2001/REC-SVG-20010904/DTD/svg10.dtd">
<svg version="1.0" xmlns="http://www.w3.org/2000/svg"
 width="3840.000000pt" height="2160.000000pt" viewBox="0 0 3840.000000 2160.000000"
 preserveAspectRatio="xMidYMid meet">

<g transform="translate(0.000000,2160.000000) scale(0.100000,-0.100000)"
fill="#000000" stroke="none">
<path d="M19335 21158 c-16 -35 -60 -157 -99 -273 l-71 -210 -277 -11 c-153
-6 -280 -13 -283 -16 -4 -3 88 -72 203 -152 116 -80 220 -154 232 -164 l21
-17 -51 -145 c-86 -246 -121 -399 -90 -392 30 6 125 70 286 190 100 74 170
120 177 115 7 -4 80 -57 162 -119 155 -115 279 -191 289 -176 9 15 -25 154
-79 321 -37 113 -51 170 -45 181 18 34 153 152 301 261 l153 114 -294 5 -293
5 -68 205 c-69 212 -121 340 -137 340 -5 0 -22 -28 -37 -62z"/>
<path d="M18363 19983 c-56 -19 -126 -97 -143 -158 -25 -91 2 -191 72 -265 42
-44 78 -90 78 -101 0 -4 -12 -22 -26 -39 -51 -60 -207 -120 -316 -120 -58 0
-64 9 -70 105 -13 182 -158 283 -332 231 -66 -20 -110 -57 -140 -118 -113
-233 75 -554 365 -623 86 -20 319 -20 435 0 95 17 190 56 249 102 50 39 147
169 184 246 43 89 61 176 61 292 0 273 -131 467 -314 464 -34 0 -80 -7 -103
-16z"/>
<path d="M20179 19984 c-53 -16 -119 -74 -148 -132 -41 -81 -55 -159 -55 -317
0 -136 2 -157 27 -230 33 -100 90 -187 170 -261 83 -77 136 -110 232 -141 74
-25 93 -27 260 -27 217 -1 279 14 392 93 201 142 290 365 213 538 -43 97 -112
143 -212 143 -79 0 -148 -31 -199 -87 -41 -45 -54 -81 -63 -168 -9 -81 -24
-95 -103 -95 -103 0 -191 39 -296 131 l-38 34 64 65 c72 74 97 130 97 216 0
104 -66 214 -146 244 -36 14 -141 11 -195 -6z"/>
<path d="M19290 19720 c-200 -42 -338 -246 -301 -444 16 -89 47 -143 126 -223
89 -89 139 -107 279 -101 76 3 102 9 158 35 79 37 143 100 184 181 26 52 29
66 29 162 0 93 -3 111 -27 163 -35 73 -126 170 -192 202 -59 29 -180 41 -256
25z"/>
<path d="M16204 19395 c-313 -55 -577 -227 -753 -490 -73 -109 -157 -286 -181
-381 -46 -178 -45 -608 1 -774 23 -85 124 -285 204 -405 143 -214 297 -350
518 -455 118 -57 219 -92 332 -115 102 -22 310 -31 349 -16 28 11 28 14 23 61
-8 65 -34 121 -90 195 -55 73 -111 116 -248 193 -199 111 -306 197 -399 321
-64 85 -131 222 -166 336 -26 83 -28 104 -28 260 -1 200 9 246 85 404 43 88
63 116 132 185 136 136 265 191 452 190 211 -1 325 -53 644 -293 364 -274 522
-339 801 -329 144 6 226 28 302 84 62 44 88 96 88 173 0 50 -3 62 -20 71 -12
6 -78 15 -148 20 -91 6 -149 16 -204 34 -176 58 -376 181 -595 365 -264 221
-421 319 -573 357 -92 22 -417 28 -526 9z"/>
<path d="M22072 19395 c-190 -34 -318 -107 -602 -344 -193 -161 -327 -254
-465 -322 -151 -73 -207 -88 -377 -99 -147 -9 -174 -17 -184 -55 -16 -62 99
-200 212 -256 60 -30 75 -32 188 -37 303 -12 452 47 822 324 348 260 431 299
639 298 78 0 142 -6 182 -17 210 -56 382 -228 465 -468 32 -91 33 -99 33 -259
0 -140 -3 -177 -22 -246 -66 -240 -208 -456 -392 -594 -36 -28 -124 -80 -195
-117 -214 -111 -274 -183 -315 -382 l-19 -91 32 5 c17 3 78 10 136 15 411 41
700 182 956 468 283 315 354 501 354 922 0 381 -62 568 -273 828 -185 228
-357 347 -592 408 -88 23 -123 27 -300 30 -144 2 -223 -1 -283 -11z"/>
<path d="M19315 18659 c-65 -58 -213 -295 -235 -378 -17 -66 -6 -105 51 -167
62 -69 103 -132 164 -254 61 -123 63 -126 85 -97 22 29 301 459 307 473 4 12
-130 260 -193 355 -70 106 -116 123 -179 68z"/>
<path d="M18338 18189 c-56 -9 -142 -54 -169 -87 -21 -27 -24 -67 -9 -107 6
-15 48 -66 93 -113 107 -111 159 -189 219 -327 26 -60 56 -116 65 -122 22 -17
58 -16 179 2 54 8 124 15 154 15 30 0 66 3 79 7 23 6 23 9 18 72 -3 36 -18
102 -32 145 -111 339 -360 554 -597 515z"/>
<path d="M20270 18184 c-157 -42 -302 -188 -407 -410 -88 -186 -103 -266 -58
-302 26 -20 107 -36 251 -48 145 -12 170 7 268 206 100 203 146 263 238 312
32 17 60 39 63 49 15 47 -104 169 -188 194 -62 18 -95 18 -167 -1z"/>
<path d="M17587 17866 c-63 -17 -127 -63 -151 -107 -27 -50 -12 -82 76 -160
89 -79 159 -179 194 -277 15 -42 30 -81 34 -85 9 -10 356 78 387 99 41 26 45
48 22 116 -36 107 -114 240 -174 297 -61 58 -153 105 -234 121 -68 13 -94 12
-154 -4z"/>
<path d="M20970 17867 c-77 -18 -129 -48 -178 -101 -77 -83 -207 -302 -226
-379 -6 -25 -3 -29 31 -44 44 -18 385 -125 388 -121 1 2 30 57 64 123 74 145
129 217 207 270 32 22 65 52 74 68 14 25 13 30 -5 65 -22 42 -98 97 -153 112
-65 17 -146 20 -202 7z"/>
<path d="M16923 17516 c-59 -19 -96 -49 -132 -104 -45 -70 -41 -93 19 -137 63
-46 131 -141 171 -236 16 -41 34 -78 38 -82 11 -11 273 100 341 143 27 18 50
38 50 46 0 49 -106 228 -176 298 -21 21 -59 48 -84 59 -56 25 -169 32 -227 13z"/>
<path d="M21644 17512 c-28 -10 -73 -34 -100 -54 -86 -63 -193 -213 -194 -271
0 -34 29 -74 77 -105 41 -26 271 -132 287 -132 3 0 20 28 37 63 45 88 102 170
185 263 l72 81 -56 60 c-31 34 -77 71 -101 83 -61 30 -143 35 -207 12z"/>
<path d="M19066 17229 c-561 -38 -1124 -168 -1659 -382 -74 -30 -243 -103
-376 -163 l-241 -109 0 -236 c0 -239 4 -299 22 -299 6 0 134 60 287 134 565
273 952 402 1481 490 284 48 452 61 795 61 486 0 846 -47 1287 -165 335 -91
612 -198 1019 -396 141 -68 260 -124 266 -124 18 0 22 109 13 319 -5 112 -10
204 -12 206 -8 8 -417 203 -523 250 -730 321 -1567 468 -2359 414z"/>
<path d="M19331 16227 c-27 -82 -668 -2057 -916 -2819 l-96 -298 -1395 0
c-846 0 -1394 4 -1394 9 0 20 116 283 182 414 275 543 694 1045 1173 1408 512
388 1082 642 1710 763 72 13 158 28 192 32 l62 6 86 264 c47 145 88 271 92
280 6 16 -2 16 -83 10 -217 -17 -490 -64 -738 -128 -1202 -306 -2241 -1097
-2866 -2182 -96 -168 -213 -413 -289 -606 -82 -208 -98 -258 -85 -269 5 -5
834 -608 1842 -1340 l1832 -1331 220 161 c121 89 220 165 220 170 0 4 -548
406 -1217 893 -670 486 -1227 892 -1238 900 -18 14 55 15 751 16 l771 0 -93
-287 c-52 -159 -94 -293 -94 -300 0 -12 438 -338 445 -331 2 2 217 659 477
1460 260 802 476 1454 479 1450 4 -4 89 -262 190 -574 l183 -568 278 0 c153 0
278 2 278 6 0 3 -169 525 -375 1159 -206 635 -375 1160 -375 1166 0 22 390
-19 620 -66 670 -136 1265 -420 1808 -861 143 -116 452 -429 576 -584 173
-216 363 -512 477 -742 l43 -88 293 0 c161 0 293 1 293 3 0 2 -17 44 -39 93
-384 886 -1037 1635 -1861 2134 -170 103 -505 270 -675 337 -526 206 -992 302
-1592 327 l-121 6 -31 -93z"/>
<path d="M7170 13110 c-746 -8 -960 -14 -960 -28 0 -40 553 -680 831 -963 402
-409 859 -609 1482 -650 514 -34 3535 -35 3569 -1 12 12 -24 34 -209 126 -167
83 -258 141 -406 255 l-102 79 -180 6 c-99 3 -423 8 -720 11 -1665 17 -2074
35 -2326 99 -182 46 -413 168 -583 308 -112 93 -266 231 -266 239 0 5 364 9
813 10 446 0 844 2 882 3 39 2 882 7 1875 11 993 4 1834 9 1870 10 36 1 473 3
971 4 736 1 909 4 918 15 13 15 101 370 101 408 0 35 -6 36 -285 49 -284 13
-6146 20 -7275 9z"/>
<path d="M24570 13109 c-365 -7 -544 -19 -562 -37 -5 -5 4 -56 20 -113 16 -57
41 -157 56 -221 l27 -117 302 -3 c166 -2 1821 -4 3677 -6 1856 -2 3375 -4
3376 -5 3 -3 -245 -221 -301 -265 -205 -161 -468 -284 -696 -326 -225 -42
-751 -58 -2264 -71 -335 -3 -659 -8 -719 -11 l-109 -5 -96 -74 c-140 -107
-253 -175 -457 -275 -99 -49 -186 -95 -193 -104 -10 -12 -5 -16 36 -23 69 -12
2269 -7 2908 6 869 18 1013 31 1271 116 233 76 441 192 654 361 125 100 423
403 602 612 182 212 395 472 421 512 l18 28 -123 7 c-258 15 -1666 22 -4513
22 -1622 0 -3123 -4 -3335 -8z"/>
<path d="M19126 12852 c-47 -141 -86 -260 -86 -264 0 -5 691 -9 1535 -10
l1535 -3 -480 -349 c-264 -191 -482 -352 -485 -356 -8 -13 162 -525 174 -522
6 1 453 323 992 715 539 391 983 712 986 712 20 0 101 -399 130 -640 24 -200
24 -692 0 -900 -58 -484 -186 -924 -390 -1340 -203 -413 -431 -736 -751 -1063
l-129 -132 89 -275 c56 -175 93 -275 101 -273 24 6 297 265 412 392 142 156
207 234 316 381 859 1153 1129 2639 733 4038 l-41 147 -2278 0 -2277 0 -86
-258z"/>
<path d="M14831 12653 c-73 -344 -96 -574 -96 -973 0 -328 7 -433 50 -712 121
-790 454 -1545 958 -2173 245 -305 576 -626 850 -822 l44 -32 1765 1282 c970
705 1798 1307 1840 1337 l76 55 -85 265 c-46 146 -85 266 -86 266 -1 1 -559
-403 -1240 -898 -682 -495 -1241 -897 -1244 -895 -2 3 79 260 180 572 l185
567 -132 97 c-258 191 -317 233 -320 230 -2 -2 -173 -526 -379 -1163 -207
-637 -379 -1161 -382 -1164 -20 -21 -488 436 -638 625 -484 607 -774 1286
-877 2053 -27 200 -37 606 -21 815 11 135 44 397 57 451 5 17 -30 47 -227 190
-128 93 -236 170 -239 172 -4 1 -21 -64 -39 -145z"/>
<path d="M20150 12153 c21 -65 235 -723 475 -1461 240 -739 435 -1345 433
-1347 -2 -1 -225 159 -497 357 l-493 359 -112 -82 c-61 -45 -161 -119 -223
-163 -62 -45 -112 -83 -112 -86 0 -4 1944 -1418 1983 -1442 17 -11 -4 -28
-129 -104 -502 -307 -1094 -506 -1687 -569 -786 -82 -1559 60 -2279 421 l-127
63 -228 -166 c-126 -91 -232 -168 -237 -172 -10 -10 177 -119 370 -217 945
-476 2044 -611 3082 -379 565 126 1101 357 1575 679 66 45 123 83 127 86 5 3
-308 980 -695 2170 l-703 2165 -281 3 -280 2 38 -117z"/>
<path d="M7856 11299 c-71 -10 -82 -19 -66 -49 42 -78 355 -379 556 -535 210
-163 540 -305 848 -364 179 -35 650 -44 2221 -45 1349 -1 1705 4 1705 25 0 12
-44 33 -140 68 -141 52 -255 119 -492 293 l-147 108 -873 0 c-883 0 -1650 12
-1921 30 -179 12 -306 37 -461 90 -198 68 -337 145 -493 271 -142 115 -135
113 -428 116 -137 1 -277 -3 -309 -8z"/>
<path d="M30353 11300 c-64 -13 -107 -40 -248 -149 -270 -210 -484 -282 -955
-321 -251 -20 -807 -30 -1758 -30 l-974 0 -166 -113 c-219 -149 -313 -204
-476 -282 -75 -35 -136 -68 -136 -74 0 -5 26 -12 58 -15 31 -3 677 -9 1434
-12 1624 -7 2053 2 2400 52 382 54 674 191 988 462 139 120 450 435 450 455 0
8 -12 18 -27 22 -43 10 -542 15 -590 5z"/>
<path d="M8877 10120 c-32 -4 -60 -10 -63 -13 -15 -15 18 -55 164 -199 409
-407 608 -539 971 -647 389 -116 636 -129 2426 -136 1073 -3 1729 4 1755 20
22 13 -14 37 -187 121 -120 59 -231 124 -365 213 l-193 130 -125 5 c-69 3
-370 8 -670 11 -1826 19 -2252 43 -2544 144 -139 48 -213 92 -426 250 -139
103 -140 104 -435 107 -137 1 -276 -1 -308 -6z"/>
<path d="M29320 10116 c-69 -15 -102 -32 -220 -115 -186 -130 -268 -174 -423
-226 -370 -123 -797 -150 -2471 -154 l-849 -1 -106 -79 c-149 -112 -263 -181
-436 -266 -147 -72 -216 -117 -204 -130 21 -21 413 -27 1394 -21 2091 13 2521
34 2841 141 113 38 300 133 412 211 311 215 725 594 690 630 -24 24 -529 32
-628 10z"/>
<path d="M9983 8981 c-106 -4 -195 -10 -199 -14 -7 -7 203 -234 319 -344 320
-303 669 -489 1087 -578 95 -20 175 -29 330 -36 343 -16 1310 -26 2865 -29
814 -1 1565 -4 1668 -5 l189 -4 -103 107 c-56 59 -168 173 -248 254 l-146 148
-1420 2 c-2011 2 -2765 16 -2945 53 -297 60 -521 159 -753 330 -71 52 -145 99
-165 106 -49 14 -242 18 -479 10z"/>
<path d="M28314 8980 c-68 -14 -105 -34 -208 -117 -367 -296 -609 -353 -1557
-368 -184 -3 -386 -7 -449 -10 -63 -3 -783 -5 -1600 -5 l-1485 0 -243 -242
c-208 -207 -241 -243 -225 -251 16 -10 3843 -2 3973 8 30 2 190 7 355 10 579
10 827 42 1048 135 120 50 291 149 398 230 297 223 637 556 603 590 -19 19
-159 29 -364 29 -113 -1 -223 -5 -246 -9z"/>
<path d="M19480 6299 c-358 -18 -643 -56 -702 -95 -43 -27 -117 -114 -187
-217 -61 -91 -169 -281 -177 -311 -8 -33 35 -79 93 -101 89 -33 248 -116 345
-181 96 -64 230 -168 236 -184 5 -13 -103 -96 -166 -127 -119 -58 -257 -29
-355 76 -57 61 -83 137 -73 219 5 41 3 53 -6 48 -38 -15 -369 -119 -465 -146
-482 -132 -1070 -222 -1548 -237 -275 -8 -441 16 -630 92 -139 56 -221 111
-335 224 -112 112 -176 151 -245 151 -79 -1 -163 -57 -238 -160 -77 -104 -328
-391 -360 -410 -50 -31 -83 -34 -125 -12 -71 36 -109 152 -129 391 l-8 94 -41
-84 c-66 -132 -86 -208 -91 -339 -5 -98 -2 -128 17 -197 41 -152 113 -224 230
-231 127 -7 216 49 363 230 41 51 96 126 121 166 26 40 57 79 70 87 68 45 151
26 250 -58 198 -167 425 -262 752 -314 84 -13 168 -17 364 -17 273 1 380 12
815 85 454 76 861 193 1032 296 31 18 57 32 58 31 1 -2 9 -32 18 -66 48 -176
152 -284 301 -311 197 -36 373 14 515 145 53 49 117 128 148 182 1 2 52 -30
115 -71 594 -392 1130 -486 1602 -282 107 47 257 149 344 234 40 39 75 71 77
71 3 0 5 -8 5 -17 0 -38 61 -145 108 -191 123 -119 366 -182 652 -169 262 12
543 93 850 245 85 42 157 78 161 80 4 2 10 -16 14 -39 19 -113 115 -320 168
-365 57 -48 181 -19 259 59 102 102 179 353 182 592 1 99 -1 113 -21 141 -45
63 -162 88 -298 65 -37 -7 -69 -10 -72 -8 -2 3 -9 90 -15 195 l-10 190 53 101
53 101 -25 27 c-42 46 -86 116 -134 214 l-45 92 -12 -34 c-21 -62 -122 -252
-186 -351 l-64 -97 20 -28 c11 -16 34 -41 51 -57 28 -27 31 -35 32 -95 0 -36
6 -128 13 -204 l12 -139 -41 -28 c-60 -41 -208 -113 -315 -153 -284 -106 -683
-163 -854 -123 -130 31 -231 110 -282 220 -36 80 -45 183 -52 614 l-7 393 -57
-41 c-63 -45 -141 -135 -182 -209 l-25 -47 11 -323 11 -323 -39 -39 c-143
-147 -394 -252 -634 -266 -297 -17 -732 94 -1045 268 -93 51 -136 82 -316 228
-140 114 -316 228 -460 300 -65 33 -115 62 -111 64 17 10 238 58 372 82 232
40 435 57 675 57 328 1 465 -20 465 -70 0 -32 -55 -106 -134 -179 -43 -40 -76
-73 -74 -73 18 0 159 55 219 85 105 52 186 113 262 195 169 182 156 309 -36
373 -58 20 -87 21 -487 23 -234 1 -504 -2 -600 -7z m4183 -1261 c16 -22 21
-44 21 -97 1 -87 -22 -126 -75 -126 -30 0 -36 5 -57 46 -12 25 -25 74 -28 110
l-6 64 33 17 c48 24 88 19 112 -14z"/>
<path d="M12402 6216 c-33 -83 -138 -269 -200 -355 l-32 -44 22 -26 c13 -14
35 -39 50 -56 25 -28 28 -41 43 -195 9 -91 19 -191 24 -223 l8 -58 -71 -44
c-107 -66 -290 -151 -388 -179 -219 -63 -486 -59 -618 9 -51 26 -100 65 -100
80 0 22 219 116 433 185 l67 22 -2 166 -3 167 -55 12 c-82 19 -376 61 -540 78
-236 24 -592 38 -785 31 l-180 -6 -33 -37 c-39 -44 -114 -166 -166 -270 -20
-40 -36 -74 -36 -76 0 -2 24 -2 53 1 77 6 234 -14 269 -35 32 -18 56 -48 47
-57 -2 -3 -54 -10 -114 -16 -442 -43 -919 -196 -1415 -453 -321 -166 -345
-177 -403 -189 -71 -15 -123 -3 -151 35 -25 33 -26 135 -3 210 8 26 11 47 7
47 -5 0 -36 -26 -70 -57 -83 -77 -113 -137 -114 -228 -2 -164 84 -248 233
-230 90 11 155 33 351 120 306 137 499 209 776 291 409 120 857 194 1181 194
l112 0 88 -88 c105 -105 206 -171 338 -218 352 -126 819 -59 1235 177 38 21
72 39 75 39 3 0 5 -10 5 -23 0 -78 110 -336 166 -388 57 -53 214 -8 285 82 89
113 157 355 161 580 2 108 -15 143 -87 179 -42 20 -63 24 -135 23 -47 0 -104
-5 -127 -11 -40 -9 -41 -8 -47 17 -3 14 -9 105 -12 201 l-7 176 51 92 51 92
-52 70 c-29 38 -75 114 -102 169 l-50 100 -33 -83z m-1492 -742 c58 -9 121
-19 140 -23 l35 -8 -45 -12 c-25 -6 -77 -24 -116 -39 -64 -26 -73 -27 -90 -14
-11 8 -65 37 -121 64 -57 27 -103 52 -103 55 0 8 179 -6 300 -23z m1837 -416
c28 -31 30 -153 4 -195 -25 -40 -64 -52 -91 -28 -23 21 -47 90 -56 162 -6 46
-4 52 17 63 58 32 96 31 126 -2z"/>
<path d="M26301 6250 c-20 -66 -108 -234 -180 -343 l-72 -108 49 -54 49 -53 6
-123 c4 -67 7 -248 7 -402 l0 -280 -43 -46 c-23 -25 -53 -59 -66 -76 l-23 -30
-316 -5 -317 -5 89 -38 c417 -176 912 -208 1431 -92 329 74 618 210 783 368
62 60 139 181 163 257 30 96 21 142 -41 202 -84 81 -232 111 -450 89 -341 -35
-666 -161 -918 -355 -40 -31 -75 -56 -77 -56 -3 0 -3 10 0 23 7 33 23 235 36
455 l11 193 50 89 50 90 -45 50 c-25 27 -72 103 -105 168 l-60 118 -11 -36z
m971 -1116 c78 -40 60 -137 -33 -185 -95 -48 -500 -139 -799 -179 -85 -11
-171 -22 -189 -25 l-35 -4 25 23 c78 77 341 220 534 291 271 100 411 123 497
79z"/>
<path d="M13513 6237 c-63 -66 -146 -168 -193 -237 l-43 -63 22 -96 c50 -225
78 -506 91 -928 5 -172 7 -319 4 -327 -3 -9 -2 -16 3 -16 14 0 158 151 233
244 l63 78 -7 232 c-7 239 -25 489 -52 706 -21 173 -64 433 -73 442 -4 5 -25
-11 -48 -35z"/>
<path d="M30296 6214 c-33 -80 -101 -188 -166 -264 l-48 -55 49 -85 48 -85 1
-215 c0 -118 -3 -258 -6 -310 l-7 -95 -76 -29 c-42 -15 -132 -55 -201 -88
-119 -57 -128 -59 -182 -53 -181 19 -392 126 -493 249 -68 83 -118 233 -134
404 -11 121 -30 159 -99 200 -44 25 -55 27 -162 27 -114 0 -116 0 -200 -41
-169 -82 -285 -196 -366 -359 -59 -119 -86 -226 -88 -340 -1 -78 2 -94 21
-121 45 -63 74 -69 303 -66 194 3 334 -8 353 -27 15 -15 -213 -94 -436 -151
-226 -57 -416 -86 -722 -108 l-100 -7 88 -33 c499 -183 954 -117 1277 184 l45
42 70 -30 c259 -110 685 -215 1081 -263 831 -103 2001 -50 3009 135 137 25
447 43 625 36 481 -20 433 -20 476 7 61 38 138 112 205 195 l62 77 -109 12
c-115 13 -253 40 -369 74 -110 33 -265 100 -265 115 0 8 4 14 9 14 17 0 156
171 169 208 8 22 15 101 17 196 l4 159 93 100 93 99 -81 81 c-44 45 -95 100
-112 122 l-32 40 -17 -25 c-31 -46 -158 -172 -219 -219 l-61 -46 48 -55 49
-54 0 -85 c0 -82 -24 -283 -35 -301 -23 -37 -307 -54 -743 -46 -189 3 -397 9
-462 13 l-118 6 -126 -169 -125 -169 77 -2 c273 -8 493 -42 590 -92 39 -20 62
-41 45 -41 -4 0 -69 -9 -143 -20 -296 -44 -438 -54 -725 -55 -197 0 -302 4
-355 14 l-75 14 35 26 c146 111 209 181 271 305 93 187 23 301 -192 314 -262
15 -806 -97 -1193 -245 -49 -18 -91 -32 -93 -30 -2 3 3 58 12 123 8 66 22 192
30 280 l15 161 51 91 c49 88 50 91 32 109 -41 41 -81 102 -134 205 l-55 109
-28 -67z m-1690 -820 c51 -24 116 -102 112 -133 -4 -34 -35 -38 -119 -16 -81
21 -119 54 -119 105 0 20 5 41 12 48 17 17 74 15 114 -4z m2676 -260 c51 -26
64 -91 27 -138 -70 -89 -373 -147 -768 -147 -230 0 -409 9 -417 22 -3 5 46 33
108 63 179 86 378 146 613 186 239 40 378 44 437 14z"/>
<path d="M10806 6145 c-103 -67 -189 -125 -193 -129 -10 -10 248 -128 266
-121 22 9 371 239 371 245 0 3 -58 33 -129 66 l-128 61 -187 -122z"/>
<path d="M24368 6203 c-61 -63 -161 -189 -197 -246 l-22 -36 25 -123 c27 -132
49 -292 66 -482 13 -151 32 -724 24 -749 -5 -16 -3 -17 13 -8 26 13 133 128
217 231 l68 85 -6 225 c-7 255 -18 419 -47 665 -24 207 -69 495 -78 495 -4 0
-32 -26 -63 -57z"/>
<path d="M34900 6193 c-62 -66 -210 -258 -210 -272 0 -4 9 -48 20 -98 50 -232
77 -499 91 -933 6 -179 13 -327 16 -330 7 -7 135 129 217 230 l69 85 -7 240
c-9 344 -37 647 -92 979 -13 81 -24 152 -24 157 0 21 -21 5 -80 -58z"/>
<path d="M4492 6004 c-91 -79 -148 -136 -140 -139 254 -91 301 -105 317 -93 9
7 80 69 159 137 l143 124 -148 53 c-81 30 -155 53 -163 53 -8 0 -84 -61 -168
-135z"/>
<path d="M15342 6012 l-174 -116 149 -74 149 -75 172 114 c94 63 172 116 172
119 0 5 -287 151 -293 149 -1 0 -80 -53 -175 -117z"/>
<path d="M14662 5934 c-95 -62 -171 -117 -168 -122 2 -4 67 -38 144 -76 l140
-69 176 114 c96 63 175 116 176 119 0 5 -286 151 -293 149 -1 0 -80 -52 -175
-115z"/>
<path d="M3801 5863 l-154 -136 149 -53 c82 -29 154 -53 161 -53 19 -1 316
260 306 270 -8 8 -290 110 -301 108 -4 0 -76 -62 -161 -136z"/>
<path d="M32805 5884 c-99 -58 -186 -108 -194 -113 -9 -6 27 -31 118 -85 73
-42 136 -76 141 -76 6 0 389 216 398 224 4 5 -260 156 -272 155 -6 0 -92 -48
-191 -105z"/>
<path d="M8622 5928 c-45 -66 -89 -159 -122 -258 l-30 -89 21 -35 c30 -52 23
-87 -24 -109 -51 -26 -145 -33 -204 -17 -95 27 -183 152 -183 260 l0 39 -81
-46 c-591 -332 -1697 -566 -2684 -567 -265 -1 -299 1 -393 22 -223 49 -356
116 -486 246 -117 118 -189 140 -293 92 -79 -37 -131 -100 -213 -254 -40 -75
-104 -192 -141 -258 -62 -110 -73 -123 -109 -138 -53 -21 -78 -20 -117 4 -66
40 -110 175 -122 370 l-6 115 -29 -55 c-119 -228 -137 -469 -49 -657 42 -90
133 -153 222 -153 44 0 136 34 178 66 57 43 122 140 190 284 35 74 74 155 86
179 46 94 127 105 223 30 178 -139 262 -187 423 -243 240 -83 544 -119 844
-98 605 42 1412 249 2217 568 101 41 187 70 191 66 3 -4 14 -29 23 -55 26 -70
94 -166 144 -204 67 -51 138 -68 229 -54 158 24 212 77 368 370 69 128 75 145
75 198 0 32 -7 86 -15 120 -19 80 -85 285 -95 296 -4 5 -21 -11 -38 -35z"/>
<path d="M7352 4755 l-173 -114 148 -74 148 -74 177 116 178 116 -145 73 c-80
39 -149 72 -153 72 -4 0 -85 -52 -180 -115z"/>
<path d="M17978 4732 c-81 -48 -148 -89 -148 -92 0 -9 233 -135 243 -132 11 3
261 147 289 167 15 10 1 21 -100 78 -65 37 -122 67 -128 66 -5 -1 -75 -40
-156 -87z"/>
<path d="M6668 4677 c-92 -62 -168 -114 -168 -117 0 -3 65 -38 145 -78 l145
-72 168 111 c92 61 171 115 176 120 9 8 -264 150 -286 148 -7 0 -88 -51 -180
-112z"/>
<path d="M17380 4665 c-80 -46 -145 -89 -145 -95 0 -6 51 -39 113 -75 l113
-64 152 90 c84 50 153 92 155 94 4 4 -226 135 -236 135 -4 0 -72 -38 -152 -85z"/>
<path d="M9015 4654 c-55 -37 -104 -70 -108 -74 -8 -7 152 -100 172 -100 5 0
59 33 120 73 l111 73 -95 47 c-53 26 -96 47 -98 47 -1 0 -47 -30 -102 -66z"/>
<path d="M5910 2545 l0 -1275 295 0 295 0 2 338 3 337 259 0 259 0 182 -335
182 -335 367 -3 c201 -1 366 0 366 3 0 2 -128 189 -285 415 -157 225 -288 415
-290 422 -2 7 23 33 56 58 171 127 302 323 350 527 30 125 23 318 -15 448 -32
104 -95 229 -161 315 -137 178 -366 312 -596 350 -39 6 -300 10 -666 10 l-603
0 0 -1275z m1171 685 c112 -21 196 -83 249 -182 29 -54 35 -75 38 -148 3 -69
0 -95 -18 -142 -28 -76 -104 -159 -178 -195 l-57 -28 -307 -3 -308 -3 0 349
c0 192 3 352 7 355 10 11 515 8 574 -3z"/>
<path d="M15235 3789 c-132 -15 -248 -28 -257 -28 -17 -1 -18 -67 -18 -1246
l0 -1245 295 0 295 0 0 1275 0 1275 -37 -1 c-21 -1 -146 -14 -278 -30z"/>
<path d="M17495 3789 c-142 -17 -261 -32 -263 -34 -2 -2 -240 -558 -528 -1236
-289 -677 -527 -1236 -530 -1240 -3 -5 138 -8 327 -7 l332 3 86 222 86 223
546 0 546 0 88 -225 89 -225 318 0 c175 0 318 3 318 8 0 4 -242 576 -538 1272
l-538 1265 -39 2 c-22 1 -157 -12 -300 -28z m231 -1132 l171 -432 -174 -3
c-95 -1 -251 -1 -346 0 l-173 3 170 437 c94 240 173 434 176 432 3 -3 82 -200
176 -437z"/>
<path d="M19350 3798 c-38 -14 -74 -40 -115 -82 -75 -76 -100 -138 -100 -247
0 -65 5 -85 33 -141 60 -122 169 -192 302 -192 110 -1 170 23 246 98 82 81
108 147 102 261 -7 131 -66 225 -180 285 -55 30 -74 34 -148 37 -69 3 -96 -1
-140 -19z"/>
<path d="M22375 3788 c-126 -16 -231 -31 -231 -31 -1 -1 -31 -535 -68 -1187
-36 -652 -68 -1211 -71 -1242 l-6 -58 301 0 300 0 0 23 c0 12 14 292 30 622
16 330 30 615 30 633 0 18 4 31 8 28 4 -2 136 -297 292 -655 l285 -650 231 -1
231 0 304 650 c167 357 305 647 307 645 5 -4 51 -1119 52 -1232 l0 -63 300 0
c165 0 300 3 300 8 -6 142 -169 2534 -173 2539 -5 4 -519 -55 -523 -60 -1 -1
-178 -374 -395 -829 -217 -455 -396 -828 -399 -828 -3 0 -185 386 -405 858
l-400 857 -35 2 c-19 0 -138 -12 -265 -29z"/>
<path d="M9008 3170 c-104 -22 -142 -34 -228 -72 -143 -64 -312 -202 -406
-333 -53 -73 -129 -237 -155 -335 -20 -72 -23 -110 -23 -245 0 -191 18 -274
94 -430 133 -275 363 -461 678 -547 64 -18 105 -21 242 -21 147 -1 176 2 265
26 483 129 808 591 755 1070 -44 396 -308 725 -683 853 -163 56 -374 69 -539
34z m358 -540 c69 -24 154 -81 200 -134 20 -22 53 -75 73 -116 35 -73 36 -78
36 -195 0 -115 -1 -123 -32 -188 -42 -89 -83 -140 -155 -193 -104 -76 -241
-106 -366 -80 -193 40 -342 195 -374 391 -23 139 25 288 129 396 125 132 316
178 489 119z"/>
<path d="M10523 3146 c-155 -22 -284 -44 -287 -47 -4 -3 187 -389 424 -857
236 -469 430 -856 430 -861 0 -4 -95 -210 -211 -457 -237 -504 -225 -455 -123
-494 134 -50 342 -53 468 -7 38 14 79 36 91 49 22 22 1300 2706 1293 2714 -4
3 -645 -72 -684 -81 -17 -4 -63 -94 -229 -447 -114 -244 -225 -476 -245 -517
l-37 -74 -130 254 c-72 140 -201 392 -287 562 -116 226 -162 307 -174 306 -9
-1 -144 -20 -299 -43z"/>
<path d="M29759 3180 c-285 -48 -538 -210 -693 -442 -107 -162 -155 -307 -163
-500 -9 -189 19 -330 94 -486 131 -268 382 -469 683 -545 123 -31 358 -31 484
1 247 62 470 216 607 419 109 161 159 314 166 511 6 153 -6 247 -47 370 -117
344 -424 604 -787 667 -89 16 -265 18 -344 5z m254 -535 c369 -78 504 -527
238 -793 -65 -66 -170 -119 -265 -133 -227 -36 -462 121 -521 346 -56 217 48
442 249 540 105 52 191 63 299 40z"/>
<path d="M31940 3169 c-190 -41 -357 -128 -493 -258 -100 -96 -167 -186 -221
-302 -73 -154 -90 -236 -90 -424 0 -135 3 -173 23 -245 97 -362 380 -639 751
-733 72 -18 113 -22 265 -22 102 0 212 6 255 14 135 23 291 63 296 75 4 11
-102 476 -111 484 -2 2 -48 -3 -103 -12 -171 -27 -348 -38 -427 -26 -267 41
-449 300 -394 562 39 185 199 336 389 368 79 13 271 2 438 -26 51 -9 95 -14
97 -12 11 11 116 481 109 488 -12 11 -146 45 -259 66 -50 9 -166 18 -260 20
-144 3 -184 1 -265 -17z"/>
<path d="M13240 3160 c-327 -70 -545 -265 -643 -575 -38 -120 -51 -224 -51
-390 1 -318 98 -562 302 -757 280 -267 602 -291 966 -69 37 22 72 41 77 41 5
0 9 -31 9 -70 l0 -70 295 0 295 0 0 920 0 919 -32 5 c-83 13 -906 66 -1013 65
-75 0 -152 -7 -205 -19z m471 -464 c92 -7 172 -16 178 -20 8 -5 11 -118 11
-391 l0 -385 -72 -54 c-88 -66 -195 -120 -265 -135 -110 -23 -253 30 -346 128
-97 102 -137 206 -137 362 0 217 81 379 229 457 102 55 140 59 402 38z"/>
<path d="M26035 3173 c-75 -11 -197 -48 -275 -84 -237 -111 -379 -294 -452
-586 -20 -77 -23 -114 -23 -293 0 -228 13 -304 77 -458 130 -313 433 -535 728
-535 137 1 303 56 469 158 32 19 61 35 65 35 3 0 6 -31 6 -70 l0 -70 300 0
300 0 0 920 0 919 -32 5 c-18 3 -229 19 -468 36 -393 27 -610 35 -695 23z
m362 -473 c70 -6 152 -13 181 -16 l52 -5 0 -391 c0 -360 -1 -392 -17 -405 -10
-7 -51 -36 -92 -64 -178 -124 -294 -142 -445 -71 -112 53 -192 144 -238 268
-32 87 -32 280 0 380 44 144 140 246 272 291 74 26 108 27 287 13z"/>
<path d="M20930 3159 c-232 -18 -569 -72 -687 -110 l-33 -11 0 -884 0 -884
280 0 280 0 0 649 0 649 49 11 c92 20 276 33 414 29 l137 -3 0 283 0 282 -162
-1 c-90 -1 -215 -6 -278 -10z"/>
<path d="M28430 3163 c-259 -19 -547 -60 -705 -101 l-70 -18 -3 -887 -2 -887
275 0 275 0 0 649 0 649 28 6 c117 24 193 30 369 30 l203 1 0 283 0 282 -162
-2 c-90 -1 -183 -3 -208 -5z"/>
<path d="M19465 2906 l-280 -32 -3 -802 -2 -802 300 0 300 0 0 835 c0 789 -1
835 -17 834 -10 -1 -144 -16 -298 -33z"/>
</g>
</svg>
